<svg width="529" height="479" xmlns="http://www.w3.org/2000/svg" xmlns:xlink="http://www.w3.org/1999/xlink"><defs><path d="M121.603 110.98c53.207 53.602-32.525 93.094-100.452 178.541-67.927 85.451 51.558 148.007 51.558 148.007 144.747 48.872 448.021 2.11 350.92-100.698-97.098-102.807 232.377-314.603-5.21-333.057-25.93-2.014-50.355-2.95-73.25-2.948-186.896.002-270.967 62.4-223.566 110.156" id="a"/><linearGradient x1=".252%" y1="50%" x2="142.121%" y2="50%" id="b"><stop stop-color="#726DBC" offset="0%"/><stop stop-color="#231C7C" offset="100%"/></linearGradient><path id="d" d="M.55.681h257.678V421.75H.549z"/><path id="f" d="M0 477.954h528.527V.681H0z"/></defs><g fill="none" fill-rule="evenodd"><g fill="#010101"><path d="M160.706 459.597c19.054 0 34.5 2.494 34.5 5.573 0 3.075-15.446 5.57-34.5 5.57-19.053 0-34.5-2.495-34.5-5.57 0-3.079 15.447-5.573 34.5-5.573M435.519 467.084c31.29 0 56.656 2.495 56.656 5.574 0 3.075-25.367 5.57-56.656 5.57-31.292 0-56.659-2.495-56.659-5.57 0-3.08 25.367-5.574 56.659-5.574"/></g><g transform="translate(22.083 5.138)"><mask id="c" fill="#fff"><use xlink:href="#a"/></mask><path d="M121.603 110.98c53.207 53.602-32.525 93.094-100.452 178.541-67.927 85.451 51.558 148.007 51.558 148.007 144.747 48.872 448.021 2.11 350.92-100.698-97.098-102.807 232.377-314.603-5.21-333.057-25.93-2.014-50.355-2.95-73.25-2.948-186.896.002-270.967 62.4-223.566 110.156" fill="url(#b)" mask="url(#c)"/></g><g transform="translate(0 .274)"><path d="M147.98 415.475S-4.109 314.347 16.533 255.348c20.643-59 141.259 92.624 146.721 150.92l-15.276 9.207z" fill="#DE8486"/><path d="M155.57 410.92c-38.698-33.234-73.102-76.085-95.163-106.191-23.901-32.628-38.851-57.748-39.004-57.98l.172-.12c.153.254 15.103 25.414 38.985 57.983 22.061 30.107 56.465 72.957 95.143 106.152l-.134.156z" fill="#122C64"/><path fill="#122C64" d="M59.87 303.87l-.114-.06-40.902-16.616.077-.196 40.786 16.578 7.916-44.2.211.039zM83.83 335.148l-.116-.041-44.562-14.74.057-.194 44.467 14.682 8.318-51.942.21.039zM111.524 367.599l-.115-.04-43.374-15.99.077-.216 43.259 15.972 8.26-50.2.192.017zM148.19 404.35l-.152-.056-39.33-17.594.076-.198 39.196 17.538.422-40.31h.21z"/><path d="M121.108 371.803s-20.068-55.364-19.32-77.767l7.532 9.13 22.368 71.528.536 4.653-7.666-1.955-3.45-5.59z" fill="#122C64"/><path d="M142.402 415.475S69.876 245.73 118.904 208.02c49.028-37.71 68.08 156.588 41.228 208.335l-17.73-.88z" fill="#DE8486"/><path d="M151.2 415.847c-14.433-49.42-20.068-104.531-22.272-142.065-2.377-40.66-1.342-70.004-1.322-70.375h.21c0 .291-1.054 29.636 1.323 70.375 2.185 37.516 7.839 92.604 22.252 142.007l-.191.058z" fill="#122C64"/><path fill="#122C64" d="M128.947 272.766l-.076-.117-25.204-36.811.172-.117 25.128 36.713 30.436-32.471.154.137zM132.11 312.334l-.077-.098-29.287-37.3.154-.117 29.229 37.183 34.94-38.727.154.156zM137.745 354.97l-.058-.098-27.619-37.69.153-.118 27.543 37.593 33.963-37.319.154.137zM148.574 406.227l-.096-.135-23.364-36.752.153-.12 23.307 36.618 22.06-33.43.173.119z"/><path d="M60.12 343.651s77.356 30.614 106.221 57.963l-6.363 6.569-97.75-55.559 7.667.645-9.775-9.618z" fill="#122C64"/><path d="M157.18 421.34S9.597 413.794.416 363.69c-9.181-50.105 136.562 6.08 163.817 44.786l-7.053 12.864z" fill="#DE8486"/><path d="M160.688 415.046c-40.538-7.175-81.957-22.932-109.576-34.898C21.192 367.19.588 355.79.397 355.675v-.176c.191.098 20.796 11.514 50.696 24.456 27.6 11.964 69 27.719 109.537 34.893l.058.198z" fill="#122C64"/><path fill="#122C64" d="M14.848 385.193l-.02-.213 35.305-5.376-12.17-34.367.191-.079 12.267 34.602-.115.018zM42.467 400.03l-.038-.195 37.126-8.248-15.008-39.98.211-.078 15.084 40.215-.115.02zM75.3 409.904l-.039-.215 36.82-6.842L97.724 364.1l.191-.078 14.433 38.983-.115.017zM118.022 417.606l-.038-.196 34.596-4.066-15.89-28.483.173-.098 16.042 28.757z"/><path d="M381.275 181.178s-37.49-32.686-20.909-75.538c0 0 35.246 21.504 26.008 65.568l-5.099 9.97zM405.005 145.833S379.15 103.001 407.84 67.5c0 0 27.065 31.474 5.024 70.533l-7.859 7.8zM398.546 160.828s41.667 26.92 76.916-1.955c0 0-30.513-27.994-69-6.001l-7.916 7.956zM424.651 127.282s47.764 12.55 72.623-25.903c0 0-37.471-17.086-67.545 15.913l-5.078 9.99zM437.703 93.833s46-18.259 44.083-64.297c0 0-40.25 8.465-45.712 53.174l1.629 11.123z" fill="#FFF"/><path fill="#282828" d="M480.637 338.294l-4.583 119.095h-11.097l-14.222-95.869-20.947 95.87H416.85l13.398-131.449 47.646 4.086z"/><g transform="translate(139.917)"><mask id="e" fill="#fff"><use xlink:href="#d"/></mask><path d="M15.691.68h227.393c8.363 0 15.144 6.915 15.144 15.445v390.181c0 8.53-6.781 15.444-15.144 15.444H15.691c-8.362 0-15.142-6.915-15.142-15.444V16.125C.55 7.595 7.33.68 15.691.68" fill="#021550" mask="url(#e)"/></g><mask id="g" fill="#fff"><use xlink:href="#f"/></mask><path fill="#96C5EE" mask="url(#g)" d="M164.233 377.1h210.163V31.315H164.233z"/><path d="M271.586 389.025c5.907 0 10.695 4.885 10.695 10.908 0 6.025-4.788 10.908-10.695 10.908-5.908 0-10.695-4.883-10.695-10.908 0-6.023 4.787-10.908 10.695-10.908" fill="#A8A8A8" mask="url(#g)"/><path fill="#FFF" mask="url(#g)" d="M233.828 142.139h97.999v-6.354h-98zM239.213 321.21h85.733v-6.354h-85.733zM239.424 333.193h85.733v-6.354h-85.733zM239.424 346.916h49.527v-6.353h-49.527zM233.828 159.518h97.999v-6.353h-98zM196 135.274a18.09 18.09 0 0 1 25.941 0c7.163 7.306 7.163 19.152 0 26.458a18.09 18.09 0 0 1-25.94 0c-7.163-7.306-7.163-19.152 0-26.458M194.612 187.434v39.333c0 1.435 1.142 2.6 2.55 2.6h48.587c1.403-.011 2.54-1.169 2.549-2.6v-27.623c0-1.436-1.14-2.6-2.55-2.6h-10.963c-1.406 0-2.549-1.165-2.549-2.6v-6.51c0-1.436-1.14-2.6-2.549-2.6h-32.583c-1.39.022-2.502 1.183-2.492 2.6M194.612 244.596v39.333c-.01 1.435 1.121 2.61 2.53 2.62H245.749c1.41-.01 2.549-1.182 2.549-2.62v-27.623c-.01-1.431-1.146-2.589-2.55-2.6h-10.963c-1.397.011-2.537-1.136-2.549-2.56v-6.55c-.01-1.431-1.146-2.589-2.549-2.6h-32.583c-1.386.033-2.492 1.186-2.492 2.6M276.588 209.642h2.528v-4.457h-2.528zM279.117 197.248l-2.528-.117v4.535h2.528zM279.117 189.839l-2.395-1.583a58.174 58.174 0 0 0-.133 4.926l2.528.801v-4.144zM280.057 227.96l-1.916 2.092c.308.246.659.432 1.035.547.368.106.749.166 1.13.176.748 0 1.534.137 2.32.176l1.437-2.502h-2.032c-.337.039-.678.039-1.015 0a2.339 2.339 0 0 1-.959-.49M279.117 220.864l-2.528.938c0 1.681 0 3.323.19 4.887l2.338-1.7v-4.125zM279.117 213.239h-2.528v4.613l2.528-.254zM302.636 231.029h4.368v-2.58h-4.368zM294.816 231.029h4.37v-2.58h-4.37zM287.282 228.449l-.765 2.58h4.869v-2.58zM325.673 228.449l1.342 2.541c.805 0 1.591 0 2.338-.176.773.01 1.538-.15 2.243-.47l-1.917-2.15a4.269 4.269 0 0 1-1.916.255h-2.09zM318.332 228.449v2.58h4.813l-.692-2.58zM310.533 231.029h4.368v-2.58h-4.368zM331.002 210.112h2.53v-4.927l-2.53.743zM331.002 217.99l2.53.332v-4.672h-2.53zM331.002 225.379l2.3 1.74a55.81 55.81 0 0 0 .23-4.829l-2.53-1.036v4.125zM320.019 197.327l1.802-2.385h-2.147a2.144 2.144 0 0 1-1.687-.763l-2.127 2.21a2.84 2.84 0 0 0 1.916.977l2.243-.04zM327.725 197.444l1.782-2.287-4.295-.118-1.78 2.346zM331.002 202.604l2.473-1.427c0-.82-.117-1.603-.173-2.385 0-.371 0-.762-.134-1.153a3.469 3.469 0 0 0-.498-1.075l-2.051 1.954c.178.296.299.62.364.958.02.346.02.69 0 1.036l.02 2.092zM302.023 185.733h4.37v-2.58h-4.37zM313.866 185.85l.903-2.423c-.282-.1-.57-.172-.862-.215a4.418 4.418 0 0 0-.788 0h-3.278v2.58h3.278a2.17 2.17 0 0 1 .422 0 .838.838 0 0 1 .325.059M315.074 192.771l2.34-1.642v-3.89l-2.455.84zM283.43 185.733l-1.514-2.443-2.3.195c-.784.114-1.501.516-2.013 1.134l2.034 1.955a2.412 2.412 0 0 1 1.761-.88l2.032.04zM290.713 185.733l-.038-2.58h-4.926l.902 2.58zM294.126 185.733h4.37v-2.58h-4.37z"/><path d="M98.453 261.564c-3.79 2.606-6.17 6.863-6.44 11.516-.882 8.387-4.14 57.103-4.14 57.103s45.1 4.399 51.156 0c0 0-2.492-56.204-3.354-61.953-.863-5.746-24.208-18.628-37.222-6.666" fill="#EFD456" mask="url(#g)"/><path d="M110.337 264.81l67.351-41.054 3.834 7.487-56.159 50.828a6.453 6.453 0 0 1-4.734 1.681c-4.236-.293-11.653-2.482-12.86-13.88-.204-2.056.804-4.044 2.568-5.063" fill="#F4CB1E" mask="url(#g)"/><path d="M89.483 328.208s.172 16.46 24.648 32.335c24.476 15.872 24.572 35.051 24.572 35.051l5.75 54.562h12.477V400.56s-6.823-41.25-21.083-70.377c.172 0-36.474.743-46.364-1.975" fill="#72B2DD" mask="url(#g)"/><path d="M52.702 414.908l10.752 12.12s38.736-32.646 41.036-37.847c2.3-5.2 9.583-28.639 9.583-28.639l-2.108-15.64-22.29-14.759s-3.834 34.27-2.857 48.423l-34.116 36.342z" fill="#72B2DD" mask="url(#g)"/><path d="M52.702 414.908h-9.469l1.4 32.471c.375 2.336 2.175 4.162 4.465 4.536 3.834.567 11.328-28.307 11.328-28.307l-7.724-8.7zM143.687 449.902v14.994h32.583s3.316-5.063-1.553-7.507c-4.868-2.443-16.617-7.487-16.617-7.487h-14.413zM430.19 457.39v14.993h-32.584s-3.335-5.043 1.553-7.487c4.887-2.444 16.615-7.507 16.615-7.507h14.416zM477.283 457.39v14.993H444.7s-3.316-5.043 1.552-7.487 16.616-7.507 16.616-7.507h14.415z" fill="#282828" mask="url(#g)"/><path d="M101.538 247.352s4.313 8.973.652 11.573l13.838-1.954s-3.22-10.107-2.836-12.766l-11.654 3.147z" fill="#FCE0D3" mask="url(#g)"/><path d="M86.953 243.756s16.867 13.684 27.485 3.91c10.618-9.775-8.663-27.682-8.663-27.682a40.903 40.903 0 0 0-11.27-9.638c-6.958-3.91-13.59 3.91-12.382 15.19a54.273 54.273 0 0 0 4.83 18.22" fill="#FCE0D3" mask="url(#g)"/><path d="M96.9 211.773s4.236-6.217-4.657-8.563c-8.893-2.346-22.674 1.681-19.512 18.259 3.163 16.578.288 28.503 6.306 29.715 6.018 1.212 16.598 4.809 20.796-.802l-7.667-9.09s-8.03 1.095-4.868-5.865c3.162-6.96 6.593 2.19 6.593 2.19s-10.33-18.26 1.917-20.899l1.092-4.945z" fill="#282828" mask="url(#g)"/><path d="M177.611 223.99s4.562-6.314 7.667-5.864c3.105.45 0 2.893 0 2.893s5.903-1.485 7.34-2.913c1.438-1.427 7.169 1.584 2.377 5.865-4.792 4.281-13.685 6.96-13.685 6.96l-3.699-6.94zM441.671 227.51a24.393 24.393 0 0 0 2.013 10.576 12.773 12.773 0 0 0 2.606 4.047c3.565 3.538 9.354 3.226 14.069 1.642 5.98-1.972 11.24-5.732 15.103-10.791 3.831-5.098 5.723-11.438 5.328-17.848-.35-5.56-2.821-10.76-6.882-14.486a30.184 30.184 0 0 0-6.65-4.203 16.06 16.06 0 0 0-7.11-2.112 14.575 14.575 0 0 0-8.359 3.03c-1.916 1.955-2.491 6.647-3.544 9.228-2.762 6.744-6.325 13.39-6.574 20.917" fill="#FCE0D3" mask="url(#g)"/><path d="M392.124 311.26a4.399 4.399 0 0 0-2.568 1.153c-.614.743-.422 2.19.52 2.385-2.07 1.857-5.312 1.955-7.21 3.91a5.219 5.219 0 0 0-.958 5.413c.796 1.828 2.546 3.028 4.506 3.089a9.44 9.44 0 0 0 4.217-1.33l12.111-6.021 9.814-4.905 14.145-7.038c.117 0-2.758-7.39-4.255-7.82-2.281-.527-7.205 3.03-9.315 3.91a100.967 100.967 0 0 1-21.007 7.253" fill="#E6D0C1" mask="url(#g)"/><path d="M454.762 280.06c.422 4.026-1.246 9.402-2.666 13.154-2.279 6.06-8.548 9.286-14.298 11.966-4.023 1.955-7.8 4.32-11.826 6.197a2.121 2.121 0 0 0-1.265 1.073c-.209.55-.307.354-.132.919.479 1.466.9 1.253.191 2.58-.71 1.33-.787 2.62-2.282 2.522-2.548-.156-3.834-2.07-4.869-4.435-2.03-4.399-5.46-10.442-7.513-14.819a1.794 1.794 0 0 1-.23-.92c.103-.356.318-.665.613-.878.805-.743.596-1 1.61-1.388a2.233 2.233 0 0 1 2.55.702c.921.862.768 1.683 1.916 2.13a3.024 3.024 0 0 0 2.513-.623c4.828-2.913 11.27-3.597 12.937-9.092.616-2.481.842-5.05.67-7.603-.135-7.663 3.24-13.02 3.106-20.703a13.247 13.247 0 0 1 1.917-4.476c1.016-2.055.65-3.287 2.856-3.775 2.568-.587 3.39-1.113 6.056-1.545 4.581-.743 7.859-2.698 8.22.667.787 7.82-.879 20.526-.074 28.346" fill="#006FD0" mask="url(#g)"/><path d="M453.478 250.812c3.486.938 7.302 1.837 10.77.234.64-.4 1.36-.649 2.11-.723.73.09 1.407.436 1.917.977a40.874 40.874 0 0 1 10.654 18.044c4.046 12.316 5.099 25.631 6.134 38.827.421 5.491.864 10.965 1.284 16.46a15.7 15.7 0 0 1-1.206 9.323 14.04 14.04 0 0 1-4.525 4.34c-8.334 5.609-18.555 7.495-28.29 5.222-2.106-.548-4.521-1.253-6.632-1.82a69.008 69.008 0 0 1-15.965-5.767c-1.515-.702-5.557-2.62-6.785-4.81a13.123 13.123 0 0 1-.9-5.708c2.989-19.9 8.643-30.125 8.951-50.044 0-2.697.154-8.719 1.225-11.26 1.075-2.543 2.417-7.311 4.18-9.151 2.07-2.13 6.153-6.627 9.085-6.764 3.719-.176 4.562 1.7 7.993 2.62" fill="#0084D0" mask="url(#g)"/><path d="M446.921 306c-.305-2.815-1.263-5.513-1.782-8.309a57.627 57.627 0 0 1-.614-8.503c-.115-4.966-.381-9.912-.707-14.858-.328-4.946-.328-9.598-1.075-14.232l2.436-1.524c.393-.196.724-.5.958-.88.422-.84-.25-1.838-1.075-2.229a13.18 13.18 0 0 0-2.662-.547c-1.344-.293-3.048-.938-3.834.195a2.64 2.64 0 0 0 .133 2.58c.393.845.86 1.65 1.399 2.405a8.108 8.108 0 0 0-.746 3.676 508 508 0 0 1-1.016 9.774 603.1 603.1 0 0 1-2.474 19.55c-.517 3.616-1.035 7.252-1.648 10.85a5.992 5.992 0 0 0 0 2.795c.174.445.406.868.69 1.25l6.19 9.287a103.713 103.713 0 0 0 4.6-6.686 8.166 8.166 0 0 0 1.189-2.483c.117-.698.13-1.41.038-2.111" fill="#07033B" mask="url(#g)"/><path d="M448.838 243.893l-2.09 4.672a66.05 66.05 0 0 0 10.197 3.07c1.43.199 2.873.28 4.313.232l-.899-8.093s-10.523.647-11.521.12" fill="#FCE0D3" mask="url(#g)"/><path d="M386.893 297.144v39.332c0 1.435 1.142 2.6 2.549 2.6h48.587c1.407 0 2.55-1.165 2.55-2.6v-27.623c-.012-1.43-1.147-2.588-2.55-2.6h-10.963c-1.407 0-2.55-1.165-2.55-2.6v-6.51c-.01-1.43-1.145-2.588-2.548-2.6h-32.584c-1.382.042-2.482 1.191-2.491 2.6" fill="#8FC0E3" mask="url(#g)"/><path d="M409.893 347.053a14.643 14.643 0 0 1-5.75 1.584c-2.532.32-4.838-1.516-5.152-4.096-.225-1.84.63-3.64 2.18-4.604a15.166 15.166 0 0 1 5.866-2.659c-1.325.098-2.07-1.778-1.419-2.932a3.804 3.804 0 0 1 3.431-1.603c1.304 0 2.607.332 3.928.215 1.284.086 2.572.008 3.833-.234 4.736-1.858 6.844-3.48 13.416-6.784 1.917-.919 3.49-1.955 5.271-3.03a32.299 32.299 0 0 1 3.72-2.19c1.917-.84 4.677-.312 6.613-1.25 1.533-.744 2.93-1.389 4.428 0 2.336 2.15.726 6.157-1.267 7.819-3.257 2.835-8.146 4.653-11.98 6.647a379.34 379.34 0 0 1-12.916 6.49 431.794 431.794 0 0 1-14.202 6.627" fill="#E6D0C1" mask="url(#g)"/><path d="M434.349 342.439c-3.048-4.846-6.766-11.026-9.813-15.894a7.48 7.48 0 0 1-1.61-3.91c-.154-1.835 1.418-2.813 3.143-2.988 1.054 1.66 1.016 1.21 2.07 2.873a112.218 112.218 0 0 0 21.486-10.969 10.909 10.909 0 0 0 2.645-1.955 8.796 8.796 0 0 0 1.648-3.48c1.495-5.454.613-11.395-.287-17.105a92.288 92.288 0 0 0-2.013-10.283 22.843 22.843 0 0 1-1.073-7.82 36.594 36.594 0 0 1 1.916-8.423c2.99-4.225 7.935-7.216 13.11-5.613a21.71 21.71 0 0 1 6.862 5.593c.843 1.642 1.917 5.98 2.894 8.172.274.721.399 1.493.364 2.268.096 2.11.173 4.2.269 6.312.096 2.485.191 4.946 0 7.41a36.985 36.985 0 0 1-1.917 9.774c-.92 2.738-1.207 7.174-2.453 9.774-1.246 2.6-1.917 6.373-3.259 9.032a26.342 26.342 0 0 1-3.085 5.376 22.171 22.171 0 0 1-4.37 3.91 151.783 151.783 0 0 1-24.457 13.195c.498.997 1.342 1.662 1.188 2.817-.019.683-3.028 2.325-3.258 1.934" fill="#006FD0" mask="url(#g)"/><path d="M489.088 212.164c.94-21.817-23.48-26.274-28.75-23.283-1.763-1.76-2.588-4.066-2.108-5.044.824-1.661-.171-1.622-.171-1.622a5.145 5.145 0 0 0-3.644 1.075c-5.75 5.454-2.549 10.146-2.549 10.146 1.572 1.955-.285 3.616-1.071 5.454a10.001 10.001 0 0 0-2.551 7.82c6.672-7.253 8.548-2.112 8.548-2.112 3.394 4.477 14.452 2.131 20.72 5.728 6.267 3.597-.27 12.55-4.465 12.12-4.2-.43-6.02 6.863-6.02 6.863s-.46 3.91 1.36.606c1.822-3.304 4.181-.49 3.644 2.091-.538 2.58-4.638 8.524-4.638 8.524s20.64-3.93 21.695-28.366" fill="#B97C00" mask="url(#g)"/><path d="M453.478 250.812l-9.315 29.323-1.42-20.057s3.296-1.7 3.394-2.403c.096-.705.498-2.522-3.737-2.776 0 0-4.602-1.761-4.14 1.467a7.236 7.236 0 0 0 1.801 3.712l-2.647 21.213s-2.894-13.352-2.624-17.34c.223-7.259 5.082-13.509 11.959-15.386l6.729 2.247zM149.437 219.632h2.472V92.836h-2.472zM149.437 81.81h2.472V60.19h-2.472z" fill="#FFF" mask="url(#g)"/></g><g fill="#FFF"><path d="M279.607 76.565c-.075-.082-.159-.112-.236-.149-.523-.25-1.05-.498-1.575-.747-1.441-.682-2.88-1.364-4.322-2.044-.54-.259-1.087-.507-1.622-.773-.228-.113-.423-.103-.648.01-.645.323-1.3.63-1.95.938-1.172.558-2.343 1.109-3.512 1.662-.598.282-1.198.56-1.794.84-.155.075-.318.138-.47.259.085.086.177.121.263.162 1.13.534 2.262 1.064 3.392 1.597 1.37.65 2.737 1.3 4.102 1.957.2.096.374.114.575.014.449-.225.903-.438 1.357-.653 1.123-.53 2.246-1.06 3.37-1.588.83-.39 1.66-.778 2.486-1.169.195-.093.4-.17.584-.316m4.629.035c-.196.098-.391.197-.587.291l-4.442 2.104-4.21 1.986c-1.082.51-2.17 1.016-3.252 1.53a.414.414 0 0 1-.397.005c-.627-.302-1.26-.593-1.888-.89-1.155-.545-2.311-1.09-3.465-1.638-.82-.387-1.64-.778-2.461-1.167-1.066-.505-2.135-1.003-3.203-1.508-.421-.199-.843-.404-1.263-.61-.067-.03-.172-.046-.167-.144.006-.092.11-.11.179-.14.61-.296 1.222-.587 1.836-.879l1.84-.866 3.42-1.612c.812-.386 1.62-.773 2.435-1.158.907-.43 1.817-.852 2.724-1.286a.442.442 0 0 1 .421 0c1.501.72 3.008 1.429 4.512 2.142l3.632 1.719c1.308.616 2.615 1.23 3.924 1.843.14.069.278.143.418.213l-.006.065"/><path d="M284.3 80.12c0 .26-.01.52.004.778.012.21-.063.333-.253.417-.49.219-.973.453-1.46.68-.75.35-1.501.698-2.252 1.05-1.173.545-2.348 1.093-3.521 1.64-.903.42-1.804.845-2.705 1.265-.791.367-1.583.733-2.37 1.104a.437.437 0 0 1-.403 0c-.542-.256-1.087-.504-1.63-.756-1.157-.54-2.316-1.08-3.474-1.617-.71-.332-1.418-.668-2.13-.999l-3.52-1.642c-.51-.238-1.018-.485-1.532-.717-.184-.082-.268-.196-.262-.409.011-.518.003-1.038.003-1.558 0-.027 0-.053.002-.08.016-.192.06-.227.234-.155.268.114.53.24.792.364 1.102.514 2.202 1.032 3.304 1.544 1.518.708 3.038 1.41 4.554 2.116 1.133.527 2.266 1.06 3.398 1.59.435.206.44.218.884.015.705-.321 1.405-.655 2.108-.982 1.12-.52 2.239-1.038 3.356-1.558.679-.315 1.357-.633 2.036-.95l2.827-1.314c.55-.258 1.098-.52 1.65-.776.349-.164.36-.156.36.225.002.24 0 .483 0 .725"/><path d="M284.3 84.588c0 .268-.005.537.002.805.006.172-.051.276-.216.35-1.4.647-2.793 1.306-4.188 1.959l-4.982 2.324c-1.029.481-2.06.956-3.087 1.445a.628.628 0 0 1-.594-.01c-.96-.461-1.93-.903-2.897-1.355-.718-.336-1.435-.674-2.154-1.01-.926-.432-1.851-.86-2.777-1.292-.719-.335-1.436-.673-2.154-1.01-.727-.337-1.451-.683-2.182-1.012-.197-.088-.283-.207-.28-.426.01-.53.004-1.058.004-1.585 0-.038-.002-.073.002-.108.016-.15.05-.176.186-.117.21.092.416.191.623.29 1.15.533 2.3 1.066 3.45 1.602.895.416 1.788.837 2.682 1.253 1.142.532 2.284 1.062 3.427 1.593.701.327 1.404.651 2.102.99a.55.55 0 0 0 .525.01 563.349 563.349 0 0 1 3.278-1.535c1.092-.508 2.19-1.013 3.283-1.521.928-.432 1.85-.868 2.777-1.3.98-.46 1.963-.915 2.948-1.369.18-.084.217-.06.22.141.006.297.002.593.002.888"/></g></g></svg>